<?xml version="1.0" encoding="UTF-8" standalone="no"?>
<!-- Created with Inkscape (http://www.inkscape.org/) -->

<svg
   xmlns:dc="http://purl.org/dc/elements/1.1/"
   xmlns:cc="http://creativecommons.org/ns#"
   xmlns:rdf="http://www.w3.org/1999/02/22-rdf-syntax-ns#"
   xmlns:svg="http://www.w3.org/2000/svg"
   xmlns="http://www.w3.org/2000/svg"
   version="1.1"
   width="100%"
   height="100%"
   viewBox="0 0 248.2 34.8"
   id="Layer_1"
   xml:space="preserve"><metadata
   id="metadata33"><rdf:RDF><cc:Work
       rdf:about=""><dc:format>image/svg+xml</dc:format><dc:type
         rdf:resource="http://purl.org/dc/dcmitype/StillImage" /><dc:title></dc:title></cc:Work></rdf:RDF></metadata><defs
   id="defs31" />
<g
   id="g3">
	<polygon
   points="165.8,2.5 168.3,4 170.9,5.4 176,8.4 173.4,10.5 170.9,11.3 165.8,8.4 170.9,5.4 165.8,8.4 165.8,8.4 165.8,8.4 165.8,8.4 161.5,5.9 161.5,5 161.5,5 "
   id="polygon5"
   style="fill:#00f7e2;fill-rule:evenodd" />
	<polygon
   points="165.8,2.5 161.5,0 161.5,5 161.5,5 "
   id="polygon7"
   style="fill:#00f7e2;fill-rule:evenodd" />
	<path
   d="m 160.7,23.1 v -5 l 0,0 -4.3,2.5 4.3,2.5 0,0 z m 0,-5 0,5 4.3,-2.5 -4.3,-2.5 0,0 z"
   id="path9"
   style="fill:#04a7ed;fill-rule:evenodd" />
	<polygon
   points="165.8,14.2 161.5,11.8 161.5,16.7 165.8,19.2 165.8,19.2 "
   id="polygon11"
   style="fill:#00f7b9;fill-rule:evenodd" />
	<polygon
   points="155.6,14.2 155.6,19.2 159.9,16.7 159.9,11.8 159.9,11.8 "
   id="polygon13"
   style="fill:#00ddff;fill-rule:evenodd" />
	<polygon
   points="150.5,11.3 147.6,10.6 145.4,8.4 159.9,0 159.9,5.9 159.9,5.9 "
   id="polygon15"
   style="fill:#00ddff;fill-rule:evenodd" />
	<polygon
   points="150.5,11.3 145.4,8.4 145.4,25.1 150.5,22.1 150.5,22.1 "
   id="polygon17"
   style="fill:#03c2ed;fill-rule:evenodd" />
	<polygon
   points="160.7,28.9 161.3,31.6 160.7,34.8 146.2,26.4 151.3,23.5 151.3,23.5 "
   id="polygon19"
   style="fill:#04a7ed;fill-rule:evenodd" />
	<polygon
   points="160.7,28.9 160.7,34.8 175.2,26.4 170.1,23.5 170.1,23.5 "
   id="polygon21"
   style="fill:#04b4f0;fill-rule:evenodd" />
	<polygon
   points="170.9,11.3 176,8.4 176,25.1 170.9,22.1 170.9,22.1 "
   id="polygon23"
   style="fill:#00f7b9;fill-rule:evenodd" />
	<path
   d="m 0,27.3 h 3.8 v -8.9 h 11 V 14.9 H 3.8 V 9 H 16.2 V 5.5 H 0 v 21.8 l 0,0 z m 20.5,0 h 3.8 v -7.6 h 4.8 l 5.4,7.6 H 39 L 33.1,19 c 3.1,-0.9 5.2,-3 5.2,-6.6 V 12.3 C 38.3,10.4 37.6,8.8 36.5,7.6 35.1,6.2 32.9,5.4 30.2,5.4 h -9.8 v 21.9 l 0.1,0 z m 3.8,-11 V 9 h 5.6 c 2.8,0 4.5,1.3 4.5,3.6 v 0.1 c 0,2.2 -1.8,3.7 -4.5,3.7 h -5.6 l 0,-0.1 z m 18.8,11 H 59.5 V 23.9 H 46.9 V 18 h 11 v -3.4 h -11 V 8.9 H 59.3 V 5.5 H 43.1 v 21.8 l 0,0 z m 21.2,0 h 3.8 V 5.5 h -3.8 v 21.8 l 0,0 z m 20,0.4 c 3.9,0 7,-1.6 9.1,-3.4 v -9.2 h -9.3 v 3.3 h 5.6 v 4.1 c -1.3,1 -3.2,1.7 -5.3,1.7 -4.5,0 -7.4,-3.3 -7.4,-7.8 v -0.1 c 0,-4.2 3.1,-7.7 7.1,-7.7 2.8,0 4.4,0.9 6.1,2.3 L 92.6,8 C 90.3,6.1 88,5 84.2,5 77.7,5.1 73,10.3 73,16.4 v 0.1 c 0,6.3 4.5,11.2 11.3,11.2 l 0,0 z m 14.2,-0.4 h 3.8 v -9.2 h 10.4 v 9.2 h 3.8 V 5.5 h -3.8 v 9.1 H 102.3 V 5.5 h -3.8 v 21.8 l 0,0 z m 29.1,0 h 3.9 V 9 h 6.9 V 5.5 H 120.6 V 9 h 6.9 v 18.3 l 0.1,0 z"
   id="path25"
   style="fill:#ffffff;fill-opacity:1;fill-rule:evenodd" />
	<path
   d="m 183.1,27.2 h 2.5 v -9.8 h 12.6 v 9.8 h 2.5 V 5.3 h -2.5 V 15 H 185.6 V 5.3 h -2.5 v 21.9 l 0,0 z m 32.5,0.3 c 5.5,0 9.1,-3.3 9.1,-9.7 V 5.3 h -2.5 V 18 c 0,4.8 -2.6,7.2 -6.6,7.2 -4.2,0 -6.7,-2.7 -6.7,-7.4 V 5.3 h -2.5 V 18 c 0.1,6.2 3.8,9.5 9.2,9.5 l 0,0 z m 15,-0.3 h 9.7 c 4.8,0 7.9,-2.2 7.9,-6 v -0.1 c 0,-3 -2.1,-4.5 -4.7,-5.3 1.7,-0.8 3.5,-2.2 3.5,-5.1 V 10.6 C 247,9.2 246.5,8 245.6,7.1 244.3,5.9 242.4,5.2 239.9,5.2 h -9.3 v 22 l 0,0 z M 233,15 V 7.5 h 6.7 c 3.1,0 4.8,1.4 4.8,3.6 v 0.1 c 0,2.6 -2.1,3.9 -5,3.9 H 233 l 0,-0.1 z m 0,10 v -7.7 h 6.9 c 3.8,0 5.8,1.4 5.8,3.8 V 21 c 0,2.4 -2.1,3.9 -5.4,3.9 H 233 l 0,0.1 z"
   id="path27"
   style="fill:#ffffff;fill-opacity:1;fill-rule:evenodd" />
</g>
</svg>