<svg xmlns="http://www.w3.org/2000/svg" width="94px" height="20px" viewBox="0 0 94 20" version="1.1" data-reactid="256"><g stroke="none" stroke-width="1" fill="#fff" fill-rule="evenodd" data-reactid="257"><g transform="translate(-272.000000, -2501.000000)" data-reactid="258"><g transform="translate(0.000000, 2460.000000)" data-reactid="259"><g transform="translate(272.000000, 41.000000)" data-reactid="260"><g data-reactid="261"><g data-reactid="262"><g data-reactid="263"><polygon points="11.0541053 0 22.1082105 19.6826969 0 19.6826969" data-reactid="264"></polygon><path d="M35.0456522,15.0779327 L43.4034783,15.0779327 L43.4034783,13.6218212 L37.13,13.6218212 L43.3013043,4.7826087 L43.3013043,3.51107465 L35.1478261,3.51107465 L35.1478261,4.96718622 L41.2169565,4.96718622 L35.0456522,13.8063987 L35.0456522,15.0779327 Z M52.1495652,15.0779327 L59.6491304,15.0779327 L59.6491304,13.6218212 L53.8456522,13.6218212 L53.8456522,9.9097621 L58.8930435,9.9097621 L58.8930435,8.45365053 L53.8456522,8.45365053 L53.8456522,4.96718622 L59.6491304,4.96718622 L59.6491304,3.51107465 L52.1495652,3.51107465 L52.1495652,15.0779327 Z M68.6813043,15.0779327 L75.9969565,15.0779327 L75.9969565,13.6218212 L73.1973913,13.6218212 L73.1973913,4.96718622 L75.9969565,4.96718622 L75.9969565,3.51107465 L68.6813043,3.51107465 L68.6813043,4.96718622 L71.5013043,4.96718622 L71.5013043,13.6218212 L68.6813043,13.6218212 L68.6813043,15.0779327 Z M88.0330435,15.0779327 L89.7291304,15.0779327 L89.7291304,4.96718622 L93.6526087,4.96718622 L93.6526087,3.51107465 L84.1504348,3.51107465 L84.1504348,4.96718622 L88.0330435,4.96718622 L88.0330435,15.0779327 Z" data-reactid="265"></path></g></g></g></g></g></g></g></svg>
